<svg width="207" height="48" xmlns="http://www.w3.org/2000/svg">
    <g fill-rule="nonzero" fill="none">
        <g fill="#000">
            <path d="m45.903 29.116.182-.245c.142-.165.288-.227.448-.084.16.142 1.716 1.58 3.774 1.58 1.858 0 3.428-1.251 3.428-2.747 0-1.83-1.49-2.642-3.956-3.483-2.368-.838-3.938-1.68-3.938-4.025 0-1.536 1.224-3.625 4.408-3.625a6.688 6.688 0 0 1 3.508 1.042.296.296 0 0 1 .08.432 1.878 1.878 0 0 0-.164.267.295.295 0 0 1-.448.103 5.974 5.974 0 0 0-2.998-.963c-2.51 0-3.446 1.555-3.446 2.722 0 1.742 1.326 2.503 3.384 3.176 2.794.966 4.571 1.946 4.571 4.324 0 2.05-2.101 3.659-4.447 3.659a6.617 6.617 0 0 1-4.324-1.69c-.124-.114-.226-.216-.062-.443zM61.22 16.948a.27.27 0 0 1 .266-.267h4.371a4.596 4.596 0 0 1 4.097 2.261 4.638 4.638 0 0 1 .011 4.695 4.596 4.596 0 0 1-4.086 2.281h-3.712v4.837a.293.293 0 0 1-.328.267h-.364a.274.274 0 0 1-.266-.267l.011-13.807zm4.612 8.03a3.731 3.731 0 0 0 3.693-3.728 3.672 3.672 0 0 0-3.715-3.607h-3.643v7.317l3.665.018zM76.737 16.948a.27.27 0 0 1 .266-.267h.448c.147 0 .266.12.266.267v13.807a.275.275 0 0 1-.284.267h-.43a.274.274 0 0 1-.266-.267V16.948zM91.777 16.476a6.966 6.966 0 0 1 4.958 1.906.257.257 0 0 1 .018.366l-.324.365c-.124.121-.226.103-.346-.021a6.382 6.382 0 0 0-7.68-.696 6.445 6.445 0 0 0-2.777 7.225 6.408 6.408 0 0 0 6.151 4.67c1.756 0 3.082-.7 4.306-1.724a.25.25 0 0 1 .324-.04l.346.366a.238.238 0 0 1 0 .366 7.035 7.035 0 0 1-4.976 1.986 7.338 7.338 0 0 1-6.36-3.688 7.404 7.404 0 0 1 0-7.375 7.338 7.338 0 0 1 6.36-3.688v-.018zM106.442 24.07l-5.201-7.082c-.12-.165-.04-.308.164-.308h.612c.102-.002.2.042.265.121l4.652 6.373 4.735-6.373a.335.335 0 0 1 .266-.12h.612c.204 0 .284.142.164.307l-5.307 7.046v6.72a.274.274 0 0 1-.266.268c-.266 0-.696.062-.696-.267V24.07zM119.62 16.618a.197.197 0 0 1 .183-.142h.226a.197.197 0 0 1 .204.142l4.222 12.575h.04l4.221-12.578c.026-.09.111-.15.204-.143h.226c.085.003.159.06.182.143l2.896 14.136c.04.205-.04.267-.222.267h-.492a.263.263 0 0 1-.244-.226l-2.306-12.004h-.04l-4.138 12.274a.273.273 0 0 1-.287.165h-.08a.24.24 0 0 1-.266-.165l-4.12-12.27h-.04l-2.306 12.003a.263.263 0 0 1-.244.227h-.492c-.182 0-.262-.062-.222-.267l2.896-14.137zM136.734 30.777l6.283-14.268a.284.284 0 0 1 .244-.143h.062a.258.258 0 0 1 .266.143l6.221 14.268c.04.12.04.245-.182.245h-.532a.328.328 0 0 1-.284-.187l-1.654-3.768h-7.79l-1.633 3.768a.331.331 0 0 1-.288.187h-.568c-.145 0-.204-.084-.145-.245zm10.078-4.511-3.49-8.254h-.04l-3.529 8.254h7.06zM155.482 16.754a.282.282 0 0 1 .306-.267h.364l9.791 12.805h.022V16.948c0-.146.117-.265.262-.267h.408c.147 0 .266.12.266.267V30.96c0 .183-.164.267-.324.267h-.266c-.022 0-.186-.062-9.875-12.93h-.018v12.458a.274.274 0 0 1-.273.267h-.387a.27.27 0 0 1-.265-.267l-.011-14.001zM180.958 16.476a6.944 6.944 0 0 1 4.935 1.906.257.257 0 0 1 .022.366c-.102.124-.226.248-.328.365-.102.118-.222.121-.346 0a6.243 6.243 0 0 0-4.305-1.723c-3.549 0-6.426 2.89-6.426 6.454 0 3.564 2.877 6.454 6.426 6.454 2.491 0 4.04-.963 4.243-1.127v-3.867h-3.486c-.226 0-.266-.08-.266-.264v-.41c0-.164.04-.248.266-.248h4.182a.27.27 0 0 1 .266.249v4.756a.56.56 0 0 1-.288.53 9.366 9.366 0 0 1-4.895 1.314c-4.056 0-7.344-3.303-7.344-7.376 0-4.074 3.288-7.376 7.344-7.376v-.003zM199.458 16.476c4.053 0 7.34 3.298 7.343 7.37.004 4.07-3.278 7.374-7.33 7.38-4.054.008-7.346-3.285-7.356-7.356a7.382 7.382 0 0 1 2.14-5.23 7.316 7.316 0 0 1 5.203-2.164zm0 13.847a6.447 6.447 0 0 0 5.961-4 6.496 6.496 0 0 0-1.405-7.06 6.427 6.427 0 0 0-7.034-1.392 6.476 6.476 0 0 0-3.966 5.999 6.476 6.476 0 0 0 1.89 4.567 6.418 6.418 0 0 0 4.554 1.886z"/>
        </g>
        <path d="M17 0C7.606 0 0 10.73 0 23.967c0 13.237 7.606 23.971 17 23.971s17-10.73 17-23.97C34 10.727 26.368 0 17 0zm2.217 38.182c-7.143.396-13.404-7.451-13.984-17.531C4.653 10.57 9.978 2.08 17.129 1.68c7.151-.4 13.4 7.455 13.981 17.535.58 10.08-4.742 18.57-11.893 18.967z" fill="#FDC801"/>
        <path d="M31.11 19.215C30.53 9.135 24.273 1.284 17.13 1.68c-7.144.396-12.466 8.89-11.89 18.97.577 10.08 6.841 17.928 13.977 17.532 7.137-.397 12.473-8.887 11.893-18.967zm-13.77 14.29c-5.74.313-10.75-5.647-11.19-13.323-.44-7.677 3.854-14.16 9.608-14.477 5.754-.316 10.736 5.644 11.176 13.324.44 7.68-3.855 14.156-9.594 14.476z" fill="#F29022"/>
        <path d="M15.743 5.705c-5.739.317-10.033 6.8-9.608 14.477.425 7.676 5.466 13.636 11.205 13.323 5.74-.312 10.037-6.8 9.609-14.476-.429-7.676-5.462-13.644-11.206-13.324zM15.104 32c-4.19.436-8.156-4.498-8.87-11.022C5.522 14.455 8.383 8.8 12.566 8.364c4.184-.437 8.168 4.501 8.87 11.021.702 6.52-2.136 12.16-6.33 12.615z" fill="#DD1C1B"/>
    </g>
</svg>