<svg width="50" height="48" xmlns="http://www.w3.org/2000/svg">
    <g fill-rule="nonzero" fill="none">
        <path d="M17 0C7.606 0 0 10.73 0 23.967c0 13.237 7.606 23.971 17 23.971s17-10.73 17-23.97C34 10.727 26.368 0 17 0zm2.217 38.182c-7.143.396-13.404-7.451-13.984-17.531C4.653 10.57 9.978 2.08 17.129 1.68c7.151-.4 13.4 7.455 13.981 17.535.58 10.08-4.742 18.57-11.893 18.967z" fill="#FDC801"/>
        <path d="M31.11 19.215C30.53 9.135 24.273 1.284 17.13 1.68c-7.144.396-12.466 8.89-11.89 18.97.577 10.08 6.841 17.928 13.977 17.532 7.137-.397 12.473-8.887 11.893-18.967zm-13.77 14.29c-5.74.313-10.75-5.647-11.19-13.323-.44-7.677 3.854-14.16 9.608-14.477 5.754-.316 10.736 5.644 11.176 13.324.44 7.68-3.855 14.156-9.594 14.476z" fill="#F29022"/>
        <path d="M15.743 5.705c-5.739.317-10.033 6.8-9.608 14.477.425 7.676 5.466 13.636 11.205 13.323 5.74-.312 10.037-6.8 9.609-14.476-.429-7.676-5.462-13.644-11.206-13.324zM15.104 32c-4.19.436-8.156-4.498-8.87-11.022C5.522 14.455 8.383 8.8 12.566 8.364c4.184-.437 8.168 4.501 8.87 11.021.702 6.52-2.136 12.16-6.33 12.615z" fill="#DD1C1B"/>
    </g>
</svg>